<svg width="14" height="14" viewBox="0 0 14 14" fill="none" xmlns="http://www.w3.org/2000/svg">
  <path fill-rule="evenodd" clip-rule="evenodd"
    d="M7.00006 0.328125C3.22514 0.328125 0.164062 3.38863 0.164062 7.16412C0.164062 10.1844 2.12278 12.7469 4.83893 13.6508C5.18057 13.7141 5.306 13.5025 5.306 13.3219C5.306 13.1589 5.29966 12.6204 5.29672 12.0492C3.39494 12.4627 2.99364 11.2426 2.99364 11.2426C2.68268 10.4525 2.23463 10.2424 2.23463 10.2424C1.6144 9.81812 2.28138 9.82684 2.28138 9.82684C2.96783 9.87506 3.32928 10.5313 3.32928 10.5313C3.93898 11.5764 4.92847 11.2742 5.31857 11.0996C5.37992 10.6577 5.55708 10.3562 5.75258 10.1855C4.23421 10.0126 2.63807 9.42645 2.63807 6.80708C2.63807 6.06075 2.90512 5.45093 3.34241 4.9722C3.27144 4.80003 3.03745 4.10474 3.40864 3.16314C3.40864 3.16314 3.98268 2.97941 5.28902 3.86385C5.83431 3.71239 6.41911 3.63643 7.00006 3.63383C7.58101 3.63643 8.16626 3.71239 8.71256 3.86385C10.0173 2.97941 10.5906 3.16314 10.5906 3.16314C10.9627 4.10474 10.7286 4.80003 10.6576 4.9722C11.0959 5.45093 11.3611 6.06075 11.3611 6.80708C11.3611 9.43267 9.76194 10.0108 8.23972 10.18C8.48492 10.3922 8.70339 10.8082 8.70339 11.446C8.70339 12.3606 8.69547 13.0968 8.69547 13.3219C8.69547 13.5038 8.81852 13.717 9.16503 13.6499C11.8797 12.7449 13.8359 10.1834 13.8359 7.16412C13.8359 3.38863 10.7753 0.328125 7.00006 0.328125Z"
    fill="white" />
</svg>